#!OML:ASF F:\twosubjects\two\Thursday\Session 1\justin.ASF
:FULLY-SPECIFIED
:DEGREES
337
root 21.0853 18.5314 3.98965 1.41624 -85.2048 15.7345
lowerback 12.0676 0.519445 1.61044
upperback 5.89484 0.632793 2.6954
thorax -0.611534 0.196286 1.81459
lowerneck -21.2275 -3.64208 -9.5385
upperneck 27.2674 -4.58608 7.7603
head 13.0874 -2.07128 3.83018
rclavicle 4.77083e-015 2.14687e-014
rhumerus 29.8064 25.3616 -44.1971
rradius 71.9428
rwrist 21.8723
rhand -39.5315 36.0595
rfingers 7.12502
rthumb -12.5161 6.45436
lclavicle 4.77083e-015 2.14687e-014
lhumerus 33.847 -25.8763 53.2699
lradius 61.8375
lwrist -35.2289
lhand -33.1521 47.4187
lfingers 7.12502
lthumb -6.36108 77.3031
rfemur -30.9103 -6.35736 21.4451
rtibia 27.9585
rfoot -13.2582 -9.36515
rtoes -11.572
lfemur -16.3921 3.40996 -16.6333
ltibia 7.35455
lfoot -4.90383 0.858617
ltoes -13.2509
338
root 21.0808 18.5338 3.97674 3.82713 -84.9554 13.3829
lowerback 12.1696 0.620208 0.923035
upperback 5.89593 0.69613 3.59047
thorax -0.684591 0.196043 3.12955
lowerneck -21.4625 -3.78377 -10.2364
upperneck 27.2995 -4.38787 7.40142
head 13.1396 -2.09826 3.84303
rclavicle 9.54166e-015 3.18055e-015
rhumerus 30.2919 25.9698 -42.923
rradius 72.156
rwrist 21.7613
rhand -39.8401 35.3943
rfingers 7.12502
rthumb -12.8136 5.80758
lclavicle 9.54166e-015 3.18055e-015
lhumerus 33.702 -25.6137 55.0403
lradius 61.5215
lwrist -35.7436
lhand -33.323 48.428
lfingers 7.12502
lthumb -6.52605 78.3074
rfemur -31.0872 -6.73774 21.7655
rtibia 28.0886
rfoot -13.0526 -9.08291
rtoes -11.0103
lfemur -16.0493 3.1924 -16.3859
ltibia 6.44757
lfoot -4.26316 0.659135
ltoes -14.8005
339
root 21.0709 18.533 3.94982 5.75995 -84.9734 11.338
lowerback 12.3292 0.612533 1.03774
upperback 5.9589 0.694154 3.64916
thorax -0.703576 0.192768 3.12652
lowerneck -21.3688 -3.76317 -10.302
upperneck 27.0218 -4.35683 7.51898
head 13.0075 -2.0712 3.89867
rclavicle 1.59028e-015 2.38542e-015
rhumerus 30.6646 26.2118 -43.1763
rradius 72.0156
rwrist 21.8629
rhand -39.6281 34.8683
rfingers 7.12502
rthumb -12.6093 5.26884
lclavicle 1.59028e-015 2.38542e-015
lhumerus 33.7567 -25.5343 55.3085
lradius 61.4183
lwrist -36.1039
lhand -33.5768 49.4354
lfingers 7.12502
lthumb -6.77105 79.3071
rfemur -30.9659 -6.84794 22.1069
rtibia 28.1327
rfoot -13.0838 -8.79548
rtoes -11.3239
lfemur -15.5648 3.25684 -16.0972
ltibia 5.80985
lfoot -3.9776 0.439686
ltoes -18.2035
340
root 21.0562 18.5459 3.9215 5.87544 -84.9163 11.2055
lowerback 12.4155 0.662611 1.0937
upperback 5.96492 0.767563 3.59637
thorax -0.745957 0.231112 3.02999
lowerneck -21.3927 -3.8334 -10.1662
upperneck 26.8899 -4.50046 7.54732
head 12.9716 -2.11184 3.85743
rclavicle -7.15625e-015 -2.54444e-014
rhumerus 30.8589 26.1356 -43.5272
rradius 71.7514
rwrist 21.9799
rhand -39.7215 34.0733
rfingers 7.12502
rthumb -12.6993 4.47941
lclavicle -7.15625e-015 -2.54444e-014
lhumerus 33.9126 -25.6935 55.3798
lradius 61.4923
lwrist -36.1141
lhand -33.8211 49.5231
lfingers 7.12502
lthumb -7.00686 79.3871
rfemur -30.8777 -6.70371 22.1541
rtibia 28.1416
rfoot -13.3127 -8.70364
rtoes -10.7028
lfemur -15.2225 3.24635 -15.9449
ltibia 5.41072
lfoot -4.13791 0.313939
ltoes -15.2522
341
root 21.0427 18.5573 3.89478 6.47041 -84.6693 10.7233
lowerback 12.5126 0.709433 1.20788
upperback 5.85697 0.85449 3.56793
thorax -0.913106 0.280166 2.92361
lowerneck -21.563 -4.0406 -9.90388
upperneck 26.9402 -4.85921 7.48552
head 13.0581 -2.24559 3.72512
rclavicle -1.59028e-015 1.98785e-014
rhumerus 30.7186 25.9166 -43.9842
rradius 71.5756
rwrist 22.2899
rhand -40.2599 33.5211
rfingers 7.12502
rthumb -13.2184 3.96015
lclavicle -1.59028e-015 1.98785e-014
lhumerus 34.2584 -26.0111 55.5092
lradius 61.3558
lwrist -35.9803
lhand -34.303 49.5459
lfingers 7.12502
lthumb -7.47207 79.3939
rfemur -30.9065 -6.55009 22.199
rtibia 28.0707
rfoot -13.5097 -8.90849
rtoes -9.35482
lfemur -15.2973 3.06413 -15.7382
ltibia 5.38242
lfoot -4.19997 0.284572
ltoes -11.2246
342
root 21.0266 18.5526 3.8613 5.97971 -84.5712 11.2396
lowerback 12.6936 0.662538 0.908979
upperback 5.73606 0.776148 3.64375
thorax -1.13914 0.238516 3.18211
lowerneck -21.6369 -4.06947 -9.92256
upperneck 27.0541 -4.89663 7.48332
head 13.1248 -2.26517 3.7236
rclavicle -8.74653e-015 -2.8625e-014
rhumerus 31.031 26.2377 -44.0411
rradius 71.5932
rwrist 22.2591
rhand -40.5581 33.4077
rfingers 7.12502
rthumb -13.5057 3.86564
lclavicle -8.74653e-015 -2.8625e-014
lhumerus 34.0622 -25.8481 55.9186
lradius 61.1284
lwrist -35.9776
lhand -34.8914 50.5227
lfingers 7.12502
lthumb -8.03992 80.3498
rfemur -30.8202 -6.39874 22.2024
rtibia 27.9651
rfoot -13.5536 -9.14234
rtoes -9.07686
lfemur -15.362 3.00818 -15.652
ltibia 5.48016
lfoot -4.10507 0.130188
ltoes -13.8856
